<svg width="500" height="400" viewBox="0 0 500 400" fill="none" xmlns="http://www.w3.org/2000/svg">
<rect width="500" height="400" rx="5" fill="#F1F2F7"/>
<g clip-path="url(#clip0_228_1746)">
<rect x="76" y="20" width="145" height="360" rx="15" fill="white"/>
<rect x="91" y="85" width="115" height="25" rx="12.5" fill="#F1F2F7"/>
<rect x="91" y="121" width="115" height="25" rx="12.5" fill="#F1F2F7"/>
<rect x="91" y="157" width="115" height="25" rx="12.5" fill="#F1F2F7"/>
<rect x="91" y="193" width="115" height="25" rx="12.5" fill="#F1F2F7"/>
<path d="M103.415 40.845C101.942 40.845 101.205 40.13 101.205 38.7C101.205 37.27 101.898 36.555 103.285 36.555C104.758 36.555 105.495 37.27 105.495 38.7C105.495 40.13 104.802 40.845 103.415 40.845ZM94.575 66C93.3183 66 92.69 65.3717 92.69 64.115C92.69 63.335 92.95 62.2733 93.47 60.93C94.5967 58.1567 95.6583 55.6 96.655 53.26C97.6517 50.92 98.5833 48.7967 99.45 46.89C99.58 46.6733 99.645 46.435 99.645 46.175C99.645 45.5683 99.3633 44.9183 98.8 44.225L102.375 44.16C103.588 44.16 104.195 44.4633 104.195 45.07C104.195 45.2433 104.152 45.4383 104.065 45.655C103.978 45.8283 103.87 46.0883 103.74 46.435L97.76 60.28C97.1533 61.71 96.85 62.9233 96.85 63.92C96.85 64.96 97.175 65.6533 97.825 66H94.575ZM102.822 66.455C103.689 64.3317 104.772 61.71 106.072 58.59C107.372 55.47 108.954 51.8733 110.817 47.8C111.207 46.9333 111.575 46.2183 111.922 45.655C112.269 45.0917 112.594 44.6583 112.897 44.355C113.504 43.7483 114.284 43.445 115.237 43.445C115.324 43.445 115.475 43.445 115.692 43.445C115.909 43.445 116.212 43.4883 116.602 43.575C117.209 43.6183 117.664 43.6183 117.967 43.575C116.364 44.5283 113.959 48.7317 110.752 56.185C111.272 55.4483 111.965 54.6467 112.832 53.78C113.742 52.87 114.804 51.8733 116.017 50.79C116.797 50.0533 117.664 49.36 118.617 48.71C119.57 48.0167 120.61 47.3667 121.737 46.76C124.294 45.33 126.179 44.615 127.392 44.615C127.695 44.615 127.912 44.6367 128.042 44.68C127.349 45.8933 126.699 47.0633 126.092 48.19C125.529 49.3167 124.987 50.3783 124.467 51.375C121.954 56.2283 120.545 59.5867 120.242 61.45C120.199 61.7533 120.155 62.035 120.112 62.295C120.112 62.555 120.112 62.7933 120.112 63.01C120.112 64.1367 120.524 64.7 121.347 64.7C122.69 64.7 124.294 63.335 126.157 60.605L127.067 61.255C124.857 64.5917 122.625 66.26 120.372 66.26C117.642 66.26 116.277 64.8517 116.277 62.035C116.277 59.7383 117.685 56.3367 120.502 51.83C120.935 51.1367 121.152 50.5517 121.152 50.075C121.152 49.555 120.914 49.295 120.437 49.295C119.96 49.295 119.332 49.555 118.552 50.075C117.815 50.5517 116.927 51.2667 115.887 52.22C114.24 53.7367 112.702 55.5567 111.272 57.68C109.842 59.76 108.542 62.1433 107.372 64.83C107.112 65.48 106.44 65.87 105.357 66C103.97 66.13 103.125 66.2817 102.822 66.455ZM134.147 66.26C131.981 66.26 130.312 65.61 129.142 64.31C128.189 63.2267 127.712 61.9267 127.712 60.41C127.712 58.2 128.406 57.095 129.792 57.095C130.312 57.095 130.789 57.29 131.222 57.68C131.656 58.1133 131.872 58.6117 131.872 59.175C131.872 59.5217 131.786 59.8033 131.612 60.02C131.049 60.7133 130.767 61.4717 130.767 62.295C130.767 63.1183 131.027 63.79 131.547 64.31C132.111 64.8733 132.826 65.155 133.692 65.155C134.602 65.155 135.426 64.8517 136.162 64.245C137.159 63.335 137.657 62.0783 137.657 60.475C137.657 59.0883 137.289 57.5283 136.552 55.795C136.249 55.3617 135.881 54.7983 135.447 54.105C135.057 53.4117 134.602 52.5883 134.082 51.635C133.779 51.115 133.562 50.595 133.432 50.075C133.346 49.5117 133.302 48.97 133.302 48.45C133.302 46.63 133.974 45.1783 135.317 44.095C136.704 42.9683 138.481 42.405 140.647 42.405C141.254 42.405 141.839 42.47 142.402 42.6C143.009 42.73 143.551 42.9683 144.027 43.315C145.024 44.0517 145.522 44.9617 145.522 46.045C145.522 46.5217 145.436 46.955 145.262 47.345C144.872 48.4717 144.027 49.035 142.727 49.035C141.297 49.035 140.582 48.2983 140.582 46.825C140.582 46.3917 140.647 46.0233 140.777 45.72C140.907 45.2867 141.384 44.8533 142.207 44.42C141.904 43.8567 141.341 43.575 140.517 43.575C139.781 43.575 139.239 43.7483 138.892 44.095C137.852 45.005 137.332 46.1533 137.332 47.54C137.332 48.4933 137.592 49.5333 138.112 50.66C138.199 50.8333 139.044 52.1983 140.647 54.755C141.731 56.4883 142.272 57.94 142.272 59.11C142.272 60.9733 141.406 62.62 139.672 64.05C137.939 65.5233 136.097 66.26 134.147 66.26Z" fill="#EDEEF3"/>
<path d="M104.415 40.845C102.942 40.845 102.205 40.13 102.205 38.7C102.205 37.27 102.898 36.555 104.285 36.555C105.758 36.555 106.495 37.27 106.495 38.7C106.495 40.13 105.802 40.845 104.415 40.845ZM95.575 66C94.3183 66 93.69 65.3717 93.69 64.115C93.69 63.335 93.95 62.2733 94.47 60.93C95.5967 58.1567 96.6583 55.6 97.655 53.26C98.6517 50.92 99.5833 48.7967 100.45 46.89C100.58 46.6733 100.645 46.435 100.645 46.175C100.645 45.5683 100.363 44.9183 99.8 44.225L103.375 44.16C104.588 44.16 105.195 44.4633 105.195 45.07C105.195 45.2433 105.152 45.4383 105.065 45.655C104.978 45.8283 104.87 46.0883 104.74 46.435L98.76 60.28C98.1533 61.71 97.85 62.9233 97.85 63.92C97.85 64.96 98.175 65.6533 98.825 66H95.575ZM103.822 66.455C104.689 64.3317 105.772 61.71 107.072 58.59C108.372 55.47 109.954 51.8733 111.817 47.8C112.207 46.9333 112.575 46.2183 112.922 45.655C113.269 45.0917 113.594 44.6583 113.897 44.355C114.504 43.7483 115.284 43.445 116.237 43.445C116.324 43.445 116.475 43.445 116.692 43.445C116.909 43.445 117.212 43.4883 117.602 43.575C118.209 43.6183 118.664 43.6183 118.967 43.575C117.364 44.5283 114.959 48.7317 111.752 56.185C112.272 55.4483 112.965 54.6467 113.832 53.78C114.742 52.87 115.804 51.8733 117.017 50.79C117.797 50.0533 118.664 49.36 119.617 48.71C120.57 48.0167 121.61 47.3667 122.737 46.76C125.294 45.33 127.179 44.615 128.392 44.615C128.695 44.615 128.912 44.6367 129.042 44.68C128.349 45.8933 127.699 47.0633 127.092 48.19C126.529 49.3167 125.987 50.3783 125.467 51.375C122.954 56.2283 121.545 59.5867 121.242 61.45C121.199 61.7533 121.155 62.035 121.112 62.295C121.112 62.555 121.112 62.7933 121.112 63.01C121.112 64.1367 121.524 64.7 122.347 64.7C123.69 64.7 125.294 63.335 127.157 60.605L128.067 61.255C125.857 64.5917 123.625 66.26 121.372 66.26C118.642 66.26 117.277 64.8517 117.277 62.035C117.277 59.7383 118.685 56.3367 121.502 51.83C121.935 51.1367 122.152 50.5517 122.152 50.075C122.152 49.555 121.914 49.295 121.437 49.295C120.96 49.295 120.332 49.555 119.552 50.075C118.815 50.5517 117.927 51.2667 116.887 52.22C115.24 53.7367 113.702 55.5567 112.272 57.68C110.842 59.76 109.542 62.1433 108.372 64.83C108.112 65.48 107.44 65.87 106.357 66C104.97 66.13 104.125 66.2817 103.822 66.455ZM135.147 66.26C132.981 66.26 131.312 65.61 130.142 64.31C129.189 63.2267 128.712 61.9267 128.712 60.41C128.712 58.2 129.406 57.095 130.792 57.095C131.312 57.095 131.789 57.29 132.222 57.68C132.656 58.1133 132.872 58.6117 132.872 59.175C132.872 59.5217 132.786 59.8033 132.612 60.02C132.049 60.7133 131.767 61.4717 131.767 62.295C131.767 63.1183 132.027 63.79 132.547 64.31C133.111 64.8733 133.826 65.155 134.692 65.155C135.602 65.155 136.426 64.8517 137.162 64.245C138.159 63.335 138.657 62.0783 138.657 60.475C138.657 59.0883 138.289 57.5283 137.552 55.795C137.249 55.3617 136.881 54.7983 136.447 54.105C136.057 53.4117 135.602 52.5883 135.082 51.635C134.779 51.115 134.562 50.595 134.432 50.075C134.346 49.5117 134.302 48.97 134.302 48.45C134.302 46.63 134.974 45.1783 136.317 44.095C137.704 42.9683 139.481 42.405 141.647 42.405C142.254 42.405 142.839 42.47 143.402 42.6C144.009 42.73 144.551 42.9683 145.027 43.315C146.024 44.0517 146.522 44.9617 146.522 46.045C146.522 46.5217 146.436 46.955 146.262 47.345C145.872 48.4717 145.027 49.035 143.727 49.035C142.297 49.035 141.582 48.2983 141.582 46.825C141.582 46.3917 141.647 46.0233 141.777 45.72C141.907 45.2867 142.384 44.8533 143.207 44.42C142.904 43.8567 142.341 43.575 141.517 43.575C140.781 43.575 140.239 43.7483 139.892 44.095C138.852 45.005 138.332 46.1533 138.332 47.54C138.332 48.4933 138.592 49.5333 139.112 50.66C139.199 50.8333 140.044 52.1983 141.647 54.755C142.731 56.4883 143.272 57.94 143.272 59.11C143.272 60.9733 142.406 62.62 140.672 64.05C138.939 65.5233 137.097 66.26 135.147 66.26Z" fill="#EDEEF3"/>
<path d="M105.415 40.845C103.942 40.845 103.205 40.13 103.205 38.7C103.205 37.27 103.898 36.555 105.285 36.555C106.758 36.555 107.495 37.27 107.495 38.7C107.495 40.13 106.802 40.845 105.415 40.845ZM96.575 66C95.3183 66 94.69 65.3717 94.69 64.115C94.69 63.335 94.95 62.2733 95.47 60.93C96.5967 58.1567 97.6583 55.6 98.655 53.26C99.6517 50.92 100.583 48.7967 101.45 46.89C101.58 46.6733 101.645 46.435 101.645 46.175C101.645 45.5683 101.363 44.9183 100.8 44.225L104.375 44.16C105.588 44.16 106.195 44.4633 106.195 45.07C106.195 45.2433 106.152 45.4383 106.065 45.655C105.978 45.8283 105.87 46.0883 105.74 46.435L99.76 60.28C99.1533 61.71 98.85 62.9233 98.85 63.92C98.85 64.96 99.175 65.6533 99.825 66H96.575ZM104.822 66.455C105.689 64.3317 106.772 61.71 108.072 58.59C109.372 55.47 110.954 51.8733 112.817 47.8C113.207 46.9333 113.575 46.2183 113.922 45.655C114.269 45.0917 114.594 44.6583 114.897 44.355C115.504 43.7483 116.284 43.445 117.237 43.445C117.324 43.445 117.475 43.445 117.692 43.445C117.909 43.445 118.212 43.4883 118.602 43.575C119.209 43.6183 119.664 43.6183 119.967 43.575C118.364 44.5283 115.959 48.7317 112.752 56.185C113.272 55.4483 113.965 54.6467 114.832 53.78C115.742 52.87 116.804 51.8733 118.017 50.79C118.797 50.0533 119.664 49.36 120.617 48.71C121.57 48.0167 122.61 47.3667 123.737 46.76C126.294 45.33 128.179 44.615 129.392 44.615C129.695 44.615 129.912 44.6367 130.042 44.68C129.349 45.8933 128.699 47.0633 128.092 48.19C127.529 49.3167 126.987 50.3783 126.467 51.375C123.954 56.2283 122.545 59.5867 122.242 61.45C122.199 61.7533 122.155 62.035 122.112 62.295C122.112 62.555 122.112 62.7933 122.112 63.01C122.112 64.1367 122.524 64.7 123.347 64.7C124.69 64.7 126.294 63.335 128.157 60.605L129.067 61.255C126.857 64.5917 124.625 66.26 122.372 66.26C119.642 66.26 118.277 64.8517 118.277 62.035C118.277 59.7383 119.685 56.3367 122.502 51.83C122.935 51.1367 123.152 50.5517 123.152 50.075C123.152 49.555 122.914 49.295 122.437 49.295C121.96 49.295 121.332 49.555 120.552 50.075C119.815 50.5517 118.927 51.2667 117.887 52.22C116.24 53.7367 114.702 55.5567 113.272 57.68C111.842 59.76 110.542 62.1433 109.372 64.83C109.112 65.48 108.44 65.87 107.357 66C105.97 66.13 105.125 66.2817 104.822 66.455ZM136.147 66.26C133.981 66.26 132.312 65.61 131.142 64.31C130.189 63.2267 129.712 61.9267 129.712 60.41C129.712 58.2 130.406 57.095 131.792 57.095C132.312 57.095 132.789 57.29 133.222 57.68C133.656 58.1133 133.872 58.6117 133.872 59.175C133.872 59.5217 133.786 59.8033 133.612 60.02C133.049 60.7133 132.767 61.4717 132.767 62.295C132.767 63.1183 133.027 63.79 133.547 64.31C134.111 64.8733 134.826 65.155 135.692 65.155C136.602 65.155 137.426 64.8517 138.162 64.245C139.159 63.335 139.657 62.0783 139.657 60.475C139.657 59.0883 139.289 57.5283 138.552 55.795C138.249 55.3617 137.881 54.7983 137.447 54.105C137.057 53.4117 136.602 52.5883 136.082 51.635C135.779 51.115 135.562 50.595 135.432 50.075C135.346 49.5117 135.302 48.97 135.302 48.45C135.302 46.63 135.974 45.1783 137.317 44.095C138.704 42.9683 140.481 42.405 142.647 42.405C143.254 42.405 143.839 42.47 144.402 42.6C145.009 42.73 145.551 42.9683 146.027 43.315C147.024 44.0517 147.522 44.9617 147.522 46.045C147.522 46.5217 147.436 46.955 147.262 47.345C146.872 48.4717 146.027 49.035 144.727 49.035C143.297 49.035 142.582 48.2983 142.582 46.825C142.582 46.3917 142.647 46.0233 142.777 45.72C142.907 45.2867 143.384 44.8533 144.207 44.42C143.904 43.8567 143.341 43.575 142.517 43.575C141.781 43.575 141.239 43.7483 140.892 44.095C139.852 45.005 139.332 46.1533 139.332 47.54C139.332 48.4933 139.592 49.5333 140.112 50.66C140.199 50.8333 141.044 52.1983 142.647 54.755C143.731 56.4883 144.272 57.94 144.272 59.11C144.272 60.9733 143.406 62.62 141.672 64.05C139.939 65.5233 138.097 66.26 136.147 66.26Z" fill="#EDEEF3"/>
<path d="M103.415 39.845C101.942 39.845 101.205 39.13 101.205 37.7C101.205 36.27 101.898 35.555 103.285 35.555C104.758 35.555 105.495 36.27 105.495 37.7C105.495 39.13 104.802 39.845 103.415 39.845ZM94.575 65C93.3183 65 92.69 64.3717 92.69 63.115C92.69 62.335 92.95 61.2733 93.47 59.93C94.5967 57.1567 95.6583 54.6 96.655 52.26C97.6517 49.92 98.5833 47.7967 99.45 45.89C99.58 45.6733 99.645 45.435 99.645 45.175C99.645 44.5683 99.3633 43.9183 98.8 43.225L102.375 43.16C103.588 43.16 104.195 43.4633 104.195 44.07C104.195 44.2433 104.152 44.4383 104.065 44.655C103.978 44.8283 103.87 45.0883 103.74 45.435L97.76 59.28C97.1533 60.71 96.85 61.9233 96.85 62.92C96.85 63.96 97.175 64.6533 97.825 65H94.575ZM102.822 65.455C103.689 63.3317 104.772 60.71 106.072 57.59C107.372 54.47 108.954 50.8733 110.817 46.8C111.207 45.9333 111.575 45.2183 111.922 44.655C112.269 44.0917 112.594 43.6583 112.897 43.355C113.504 42.7483 114.284 42.445 115.237 42.445C115.324 42.445 115.475 42.445 115.692 42.445C115.909 42.445 116.212 42.4883 116.602 42.575C117.209 42.6183 117.664 42.6183 117.967 42.575C116.364 43.5283 113.959 47.7317 110.752 55.185C111.272 54.4483 111.965 53.6467 112.832 52.78C113.742 51.87 114.804 50.8733 116.017 49.79C116.797 49.0533 117.664 48.36 118.617 47.71C119.57 47.0167 120.61 46.3667 121.737 45.76C124.294 44.33 126.179 43.615 127.392 43.615C127.695 43.615 127.912 43.6367 128.042 43.68C127.349 44.8933 126.699 46.0633 126.092 47.19C125.529 48.3167 124.987 49.3783 124.467 50.375C121.954 55.2283 120.545 58.5867 120.242 60.45C120.199 60.7533 120.155 61.035 120.112 61.295C120.112 61.555 120.112 61.7933 120.112 62.01C120.112 63.1367 120.524 63.7 121.347 63.7C122.69 63.7 124.294 62.335 126.157 59.605L127.067 60.255C124.857 63.5917 122.625 65.26 120.372 65.26C117.642 65.26 116.277 63.8517 116.277 61.035C116.277 58.7383 117.685 55.3367 120.502 50.83C120.935 50.1367 121.152 49.5517 121.152 49.075C121.152 48.555 120.914 48.295 120.437 48.295C119.96 48.295 119.332 48.555 118.552 49.075C117.815 49.5517 116.927 50.2667 115.887 51.22C114.24 52.7367 112.702 54.5567 111.272 56.68C109.842 58.76 108.542 61.1433 107.372 63.83C107.112 64.48 106.44 64.87 105.357 65C103.97 65.13 103.125 65.2817 102.822 65.455ZM134.147 65.26C131.981 65.26 130.312 64.61 129.142 63.31C128.189 62.2267 127.712 60.9267 127.712 59.41C127.712 57.2 128.406 56.095 129.792 56.095C130.312 56.095 130.789 56.29 131.222 56.68C131.656 57.1133 131.872 57.6117 131.872 58.175C131.872 58.5217 131.786 58.8033 131.612 59.02C131.049 59.7133 130.767 60.4717 130.767 61.295C130.767 62.1183 131.027 62.79 131.547 63.31C132.111 63.8733 132.826 64.155 133.692 64.155C134.602 64.155 135.426 63.8517 136.162 63.245C137.159 62.335 137.657 61.0783 137.657 59.475C137.657 58.0883 137.289 56.5283 136.552 54.795C136.249 54.3617 135.881 53.7983 135.447 53.105C135.057 52.4117 134.602 51.5883 134.082 50.635C133.779 50.115 133.562 49.595 133.432 49.075C133.346 48.5117 133.302 47.97 133.302 47.45C133.302 45.63 133.974 44.1783 135.317 43.095C136.704 41.9683 138.481 41.405 140.647 41.405C141.254 41.405 141.839 41.47 142.402 41.6C143.009 41.73 143.551 41.9683 144.027 42.315C145.024 43.0517 145.522 43.9617 145.522 45.045C145.522 45.5217 145.436 45.955 145.262 46.345C144.872 47.4717 144.027 48.035 142.727 48.035C141.297 48.035 140.582 47.2983 140.582 45.825C140.582 45.3917 140.647 45.0233 140.777 44.72C140.907 44.2867 141.384 43.8533 142.207 43.42C141.904 42.8567 141.341 42.575 140.517 42.575C139.781 42.575 139.239 42.7483 138.892 43.095C137.852 44.005 137.332 45.1533 137.332 46.54C137.332 47.4933 137.592 48.5333 138.112 49.66C138.199 49.8333 139.044 51.1983 140.647 53.755C141.731 55.4883 142.272 56.94 142.272 58.11C142.272 59.9733 141.406 61.62 139.672 63.05C137.939 64.5233 136.097 65.26 134.147 65.26Z" fill="#EDEEF3"/>
</g>
<rect x="231" y="20" width="193" height="40" rx="15" fill="white"/>
<rect x="241" y="30" width="66" height="20" rx="10" fill="#F1F2F7"/>
<rect x="364" y="30" width="20" height="20" rx="10" fill="#F1F2F7"/>
<rect x="394" y="30" width="20" height="20" rx="10" fill="#F1F2F7"/>
<g opacity="0.8">
<rect x="231" y="70" width="77" height="90" rx="15" fill="white"/>
<rect x="313" y="70" width="111" height="90" rx="15" fill="white"/>
<rect x="231" y="165" width="193" height="53" rx="15" fill="white"/>
<rect x="231" y="223" width="94" height="157" rx="15" fill="white"/>
<rect x="330" y="223" width="94" height="157" rx="15" fill="white"/>
</g>
<defs>
<clipPath id="clip0_228_1746">
<rect x="76" y="20" width="145" height="360" rx="15" fill="white"/>
</clipPath>
</defs>
</svg>
